<svg xmlns="http://www.w3.org/2000/svg" viewBox="0 0 44 44"><defs><style>.cls-1{fill:#d50032;}.cls-2,.cls-3{fill:none;stroke:#fff;stroke-linecap:round;}.cls-2{stroke-linejoin:round;}.cls-3{stroke-miterlimit:10;}</style></defs><g id="Layer_2" data-name="Layer 2"><g id="Circles"><circle class="cls-1" cx="22" cy="22" r="21.5"/><path class="cls-1" d="M22,1A21,21,0,1,1,1,22,21,21,0,0,1,22,1m0-1A22,22,0,1,0,44,22,22,22,0,0,0,22,0Z"/></g><g id="Location"><g id="Location-2" data-name="Location"><path class="cls-2" d="M16.13,23.47C17.1,25.18,22,33.63,22,33.63l5.87-10.16C28.67,22.07,30,20.14,30,18a8,8,0,0,0-16,0C14,20.14,15.17,21.75,16.13,23.47Z"/><circle class="cls-3" cx="22" cy="18.19" r="3.31"/></g></g></g></svg>